<svg width="128" height="128" viewBox="0 0 128 128" fill="none" xmlns="http://www.w3.org/2000/svg">
<g clip-path="url(#clip0_11_28)">
<path d="M128 0H0V128H128V0Z" fill="#F0F0F0"/>
<path opacity="0.1" d="M64 123.504C96.8633 123.504 123.504 96.8632 123.504 64C123.504 31.1368 96.8633 4.49586 64 4.49586C31.1368 4.49586 4.4959 31.1368 4.4959 64C4.4959 96.8632 31.1368 123.504 64 123.504Z" stroke="black" stroke-width="0.99" stroke-dasharray="0.99 0.99"/>
<path opacity="0.1" d="M99.505 8.49496H28.495C24.0767 8.49496 20.495 12.0767 20.495 16.495V111.505C20.495 115.923 24.0767 119.505 28.495 119.505H99.505C103.923 119.505 107.505 115.923 107.505 111.505V16.495C107.505 12.0767 103.923 8.49496 99.505 8.49496Z" stroke="black" stroke-width="0.99" stroke-dasharray="0.99 0.99"/>
<path opacity="0.1" d="M107.505 12.4952H20.4953C16.077 12.4952 12.4953 16.077 12.4953 20.4952V107.505C12.4953 111.923 16.077 115.505 20.4953 115.505H107.505C111.923 115.505 115.505 111.923 115.505 107.505V20.4952C115.505 16.077 111.923 12.4952 107.505 12.4952Z" stroke="black" stroke-width="0.99" stroke-dasharray="0.99 0.99"/>
<path opacity="0.1" d="M111.505 28.495H16.495C12.0767 28.495 8.49501 32.0767 8.49501 36.495V107.505C8.49501 111.923 12.0767 115.505 16.495 115.505H111.505C115.923 115.505 119.505 111.923 119.505 107.505V36.495C119.505 32.0767 115.923 28.495 111.505 28.495Z" stroke="black" stroke-width="0.99" stroke-dasharray="0.99 0.99"/>
<path d="M2.67029e-05 117H128" stroke="#62A0EA" stroke-width="2"/>
<path d="M18.3666 33.626C18.5208 34.7057 18.7545 35.9559 19.0268 37.74C19.4133 40.2735 19.6098 43.887 20.0772 47.4273C20.2361 49.6567 20.3132 50.8368 20.43 51.7294C20.4698 52.2365 20.4698 52.8534 20.4698 53.4891" stroke="black" stroke-width="2" stroke-linecap="round"/>
<path d="M12.2909 35.4955C14.4501 35.3413 17.1818 35.2618 19.944 35.3389C24.0358 35.7292 27.7887 35.6521 28.3717 35.4967C28.6463 35.4184 28.8777 35.3413 29.116 35.0281" stroke="black" stroke-width="2" stroke-linecap="round"/>
<path d="M39.8654 34.7944C38.3979 34.7944 34.9674 35.1029 33.6378 36.1533C32.7281 36.872 32.7007 38.3698 32.6598 40.3175C32.6195 42.2357 33.556 45.4457 32.9741 48.6495C32.8598 49.279 32.8549 49.7408 32.9706 50.0563C33.0863 50.3717 33.3176 50.526 33.6296 50.644C35.5365 51.3653 38.2997 50.6101 40.5186 49.9476C41.1063 49.7525 41.6461 49.5211 42.0784 49.3634C42.5107 49.2057 42.8192 49.1285 43.137 48.8154" stroke="black" stroke-width="2" stroke-linecap="round"/>
<path d="M30.5181 41.1039C33.3176 41.6484 35.7993 42.4219 37.6793 42.7782C37.9936 42.8168 38.225 42.8939 38.8454 42.9336C39.4658 42.9733 40.4683 42.9733 41.7349 42.506" stroke="black" stroke-width="2" stroke-linecap="round"/>
<path d="M45.9412 50.2175C45.9412 49.5211 46.2496 47.1937 46.9121 45.2798C48.2872 41.3074 48.8201 38.8512 49.638 36.8275C49.9586 36.0342 50.2246 35.4978 50.4571 35.1859C50.5617 35.0455 50.8438 35.1824 51.0787 35.5306C52.2493 37.2661 52.7133 39.7625 53.3781 41.4112C53.649 42.0829 53.8069 42.7373 54.1563 43.165C54.3314 43.3793 54.5828 43.5155 54.8562 43.5564C55.4327 43.6426 55.9872 43.2865 56.4534 42.8986C58.6361 41.0824 60.4248 36.3648 62.3293 32.9776C63.3699 31.1269 64.3998 30.1231 64.866 29.8883C66.1444 29.2443 66.4258 32.8409 66.7763 34.7092C67.12 36.541 67.7484 38.524 68.3338 39.9694C68.8852 41.3308 68.9168 42.6555 69.3083 43.9034C69.4637 44.525 69.5431 45.614 69.5817 46.8981C69.6202 47.411 69.6973 47.6423 69.7768 47.8807" stroke="black" stroke-width="2" stroke-linecap="round"/>
<path d="M77.722 51.8533C77.6449 51.1569 76.7172 47.4414 75.932 43.2199C75.487 40.8275 75.3852 37.3883 75.6563 35.2279C75.8412 33.7539 76.8621 32.6212 78.1041 31.4493C79.3889 30.237 80.9912 30.3545 81.8816 30.4702C85.1176 30.8906 86.4384 32.2193 87.3392 33.6961C88.9014 36.2573 88.4714 38.2132 88.3557 39.537C88.2989 40.1871 87.4619 40.3234 86.6475 40.5571C84.5091 41.1707 83.3351 40.1692 81.7402 39.7427C81.309 39.6247 80.9235 39.5476 80.5706 39.5078C80.2177 39.4681 79.9093 39.4681 79.5915 39.4681" stroke="black" stroke-width="2" stroke-linecap="round"/>
<path d="M18.6003 63.7711V75.9226" stroke="black" stroke-width="2" stroke-linecap="round"/>
<path d="M38.4633 63.5374C34.6543 63.7688 32.1632 64.7012 30.1758 65.6744C28.6484 66.4224 27.7957 68.1269 27.1344 69.3316C25.7747 71.8083 26.6997 75.3664 28.2105 77.5876C29.756 79.8599 32.6119 80.5168 34.2068 80.7505C36.4303 80.5986 38.3044 79.7433 38.8875 79.0434C39.162 78.7291 39.3934 78.4978 39.6317 78.2594" stroke="black" stroke-width="2" stroke-linecap="round"/>
<path d="M47.5769 64.7058C47.2685 64.7058 46.1842 64.7829 44.5893 65.2082C41.284 66.0897 41.5806 71.319 41.6169 74.8956C41.6448 77.6508 44.296 79.6522 46.9039 81.6794C48.2775 82.747 51.2948 83.0102 54.7195 83.0499C56.6114 83.0719 57.9291 81.9282 59.2517 80.5285C61.0373 78.6388 61.439 75.8572 61.4051 73.0915C61.357 69.1684 58.7236 67.8278 55.4591 65.1837C51.7011 62.1399 47.5068 63.0677 46.1842 63.5725C44.7751 65.0891 44.3054 66.8043 44.3825 67.7752C44.4596 68.2835 44.6138 68.8233 44.7728 69.3795" stroke="black" stroke-width="2" stroke-linecap="round"/>
<path d="M66.7389 81.9984C66.7389 80.9164 67.3558 75.4926 68.488 71.9196C69.2001 69.6725 69.3094 67.4446 69.5419 65.9175C69.6216 65.3943 71.4733 69.2603 74.468 76.1084C77.1502 82.242 79.04 83.1621 80.0553 83.5944C80.2745 83.6877 80.5215 83.6341 80.7564 83.0943C81.4609 79.7456 81.6152 78.0304 81.8488 75.7871C81.9283 74.0064 81.9283 70.9218 81.9283 67.7437" stroke="black" stroke-width="2" stroke-linecap="round"/>
<path d="M21.4045 90.4109C22.0214 92.8786 22.3392 94.6897 22.3778 95.7003C22.4934 96.5568 22.5729 98.7277 22.6115 101.261C22.65 102.02 22.7271 101.712 22.8066 101.394" stroke="black" stroke-width="2" stroke-linecap="round"/>
<path d="M15.5624 91.5793C18.0301 91.4251 20.6894 91.1914 23.7951 90.9577C27.5176 90.8783 29.8918 90.8012 30.5134 90.6458C30.8266 90.5675 31.135 90.4904 31.6865 90.4109" stroke="black" stroke-width="2" stroke-linecap="round"/>
<path d="M36.3602 91.112C34.5725 91.577 33.0185 92.9721 31.8454 94.9596C31.1901 96.0698 31.995 97.7252 32.6166 99.0478C33.532 100.996 36.5798 101.857 39.8526 102.483C41.5333 102.805 43.2842 102.1 44.7622 100.975C46.2106 99.872 46.1748 97.5102 46.0592 95.566C45.8883 92.6946 43.4595 90.1913 41.5082 88.3522C39.9928 86.9239 37.0799 87.1394 35.0025 87.6429C33.5607 88.7705 32.3128 90.1726 31.9599 91.3024C31.9202 91.577 31.9202 91.8083 31.9202 92.0467" stroke="black" stroke-width="2" stroke-linecap="round"/>
<path d="M48.7454 89.0088C48.278 91.2639 47.8153 94.3602 47.5384 98.2276C47.468 99.211 47.3433 99.9101 47.4589 100.456C47.5329 100.805 50.512 100.459 54.7522 100.228C57.6084 100.072 58.9456 98.7487 59.6069 97.9729C60.3636 97.0852 60.0416 95.6361 59.6922 94.5086C59.0552 92.4527 56.3915 89.8828 54.8643 88.5052C54.373 88.062 53.8887 87.6862 53.4225 87.4525C53.1877 87.3731 52.9563 87.3731 52.4516 87.5273C51.9468 87.6815 51.1757 87.99 50.3811 88.3078" stroke="black" stroke-width="2" stroke-linecap="round"/>
<path d="M67.2063 90.1772C66.587 89.6351 65.5728 89.0088 65.0681 89.0474C64.7928 89.0684 64.4862 89.1631 64.2116 89.5498C62.4489 92.0326 64.0843 96.5474 65.7201 99.7477C66.7093 101.683 68.2906 102.404 69.3445 102.833C69.9388 103.076 70.4755 103.263 71.0574 103.148C71.9246 102.975 72.6558 102.254 73.2002 101.632C74.2121 100.477 73.9831 97.5943 73.5578 95.0554C72.8867 91.0489 68.3139 88.8639 65.7341 87.9199C64.9973 87.6503 64.3273 87.9175 63.7057 88.15C63.3926 88.3054 63.0841 88.5368 62.8481 88.9259C62.6121 89.315 62.4579 89.8548 62.299 90.6446" stroke="black" stroke-width="2" stroke-linecap="round"/>
</g>
<defs>
<clipPath id="clip0_11_28">
<rect width="128" height="128" fill="white"/>
</clipPath>
</defs>
</svg>
